# xmcd
#
# Track frame offsets: 
#        150
#        10320
#        24100
#        34944
#        47457
#        61706
#        76307
#        89019
#        103448
#        114299
#        125419
#        138616
#        149172
#        162679
#        174493
#        187331
#        199762
#        207208
#        219478
#        231953
#        244264
#        256521
#        268997
#        280990
#        292490
#        303205
#        315904
#        328191
#        338711
#        349094
#        359708
#        371906
#        382546
#
# Disc length: 5253 seconds
#
# Revision: 0
# Processed by: cddbd v1.5.2PL0 Copyright (c) Steve Scherf et al.
# Submitted via: ExactAudioCopy v0.99pb5
#
DISCID=0d148321
DTITLE=Billy The Kid Emerson - Red Hot - The Sun Years Plus
DYEAR=2009
DGENRE=Blues
TTITLE0=If Lovin' Is Believing
TTITLE1=NoTeasing Around
TTITLE2=Hey Little Girl
TTITLE3=When My Baby Quit Me
TTITLE4=The Woodchuck
TTITLE5=I'm Not Going Home
TTITLE6=Move Baby Move
TTITLE7=When It Rains It Pours
TTITLE8=Shim Sham Shammy
TTITLE9=Red Hot
TTITLE10=No Greater Love
TTITLE11=Satisfied
TTITLE12=Cherry Pie
TTITLE13=Little Fine Healthy Girl
TTITLE14=Something For Nothing
TTITLE15=Don't Start Me To Lyin'
TTITLE16=If You Won't Stay Home
TTITLE17=Every Woman I Know (Crazy 'Bout Automobiles)
TTITLE18=Tomorrow Never Comes
TTITLE19=Somebody Show Me
TTITLE20=The Pleasure Is All Mine
TTITLE21=Do The Chicken
TTITLE22=Don't Be Careless
TTITLE23=Do Yourself A Favor
TTITLE24=You Never Miss Your Water
TTITLE25=Give Me A Little Love
TTITLE26=Woodchuck
TTITLE27=Believe Me
TTITLE28=Holy Mackerel Baby
TTITLE29=I'll Get You Too
TTITLE30=Um Hum My Baby
TTITLE31=When It Rains It Pours
TTITLE32=I Never Get Enough
EXTD=Bear Family CD BCD 16037 AH
EXTT0=
EXTT1=
EXTT2=
EXTT3=
EXTT4=
EXTT5=
EXTT6=
EXTT7=
EXTT8=
EXTT9=
EXTT10=
EXTT11=
EXTT12=
EXTT13=
EXTT14=
EXTT15=
EXTT16=
EXTT17=
EXTT18=
EXTT19=
EXTT20=
EXTT21=
EXTT22=
EXTT23=
EXTT24=
EXTT25=
EXTT26=
EXTT27=
EXTT28=
EXTT29=
EXTT30=
EXTT31=
EXTT32=
PLAYORDER=
